<?xml version="1.0" standalone="no"?><!-- Generator: Gravit.io --><svg xmlns="http://www.w3.org/2000/svg" xmlns:xlink="http://www.w3.org/1999/xlink" style="isolation:isolate" viewBox="160.927 517.827 287 288" width="287" height="288"><defs><clipPath id="_clipPath_LbuStZzlWzcwRt4nPk5rZwOihXcdciaq"><rect width="595.276" height="841.89"/></clipPath></defs><g clip-path="url(#_clipPath_LbuStZzlWzcwRt4nPk5rZwOihXcdciaq)"><path d=" M 153.927 205.914 C 153.927 126.598 218.321 62.203 297.638 62.203 C 376.954 62.203 441.349 126.598 441.349 205.914 C 441.349 285.231 376.954 349.626 297.638 349.626 C 218.321 349.626 153.927 285.231 153.927 205.914 Z " fill="rgb(238,185,2)"/><path d=" M 160.925 662.217 C 160.925 582.9 225.32 518.506 304.636 518.506 C 383.952 518.506 448.347 582.9 448.347 662.217 C 448.347 741.533 383.952 805.928 304.636 805.928 C 225.32 805.928 160.925 741.533 160.925 662.217 Z " fill="rgb(255,127,17)"/><path d=" M 643.851 498.699 C 643.851 419.383 708.245 354.988 787.562 354.988 C 866.878 354.988 931.273 419.383 931.273 498.699 C 931.273 578.015 866.878 642.41 787.562 642.41 C 708.245 642.41 643.851 578.015 643.851 498.699 Z " fill="rgb(45,125,210)"/><g id="rocket"><g id="Group"><g id="Group"><path d=" M 815.988 508.805 C 818.315 491.356 818.46 470.127 811.481 450.061 C 811.481 449.625 811.335 449.189 811.045 448.898 C 806.973 437.702 800.721 426.942 791.27 417.49 C 790.833 417.054 790.106 416.763 789.525 416.763 L 786.471 416.763 C 785.744 416.763 785.163 417.054 784.726 417.49 C 775.275 426.942 769.023 437.702 764.951 448.898 C 764.806 449.189 764.66 449.479 764.66 449.916 C 757.681 469.691 757.826 490.774 760.153 508.078 C 760.007 508.078 760.007 508.078 759.862 508.223 C 736.161 521.891 735.143 543.702 735.143 544.574 C 735.143 545.301 735.434 545.883 735.87 546.319 C 736.306 546.755 737.033 547.046 737.615 547.046 L 771.494 547.046 L 803.484 547.046 L 804.792 547.046 L 837.508 547.046 C 838.235 547.046 838.817 546.755 839.253 546.319 C 839.689 545.883 839.98 545.156 839.98 544.574 C 839.835 543.702 838.817 522.473 815.988 508.805 Z  M 790.542 424.034 C 797.231 431.304 802.03 439.446 805.519 447.88 L 790.542 447.88 L 790.542 424.034 L 790.542 424.034 Z  M 785.599 424.034 L 785.599 447.88 L 770.767 447.88 C 774.112 439.446 779.055 431.304 785.599 424.034 Z  M 740.378 542.248 C 741.396 536.722 745.322 523.054 760.88 513.458 C 763.061 526.69 766.26 537.159 768.005 542.248 L 740.378 542.248 Z  M 803.047 542.248 L 791.706 542.248 L 791.706 505.17 C 791.706 503.861 790.542 502.698 789.234 502.698 C 787.925 502.698 786.762 503.861 786.762 505.17 L 786.762 542.248 L 773.239 542.248 C 770.186 533.669 756.227 490.92 768.877 452.824 L 807.264 452.824 C 820.06 490.92 806.101 533.669 803.047 542.248 Z  M 808.282 542.248 C 810.027 537.304 813.08 527.126 815.261 514.185 C 830.093 523.781 833.728 536.868 834.746 542.248 C 834.746 542.248 808.282 542.248 808.282 542.248 Z " fill="rgb(35,31,32)"/><path d=" M 803.484 549.809 L 774.984 549.809 C 773.676 549.809 772.512 550.972 772.512 552.281 C 772.512 572.347 787.489 580.053 788.071 580.344 C 788.361 580.489 788.798 580.635 789.234 580.635 C 789.67 580.635 789.961 580.489 790.397 580.344 C 790.979 580.053 805.955 572.201 805.955 552.281 C 805.955 550.972 804.792 549.809 803.484 549.809 Z  M 789.234 575.255 C 786.326 573.365 778.474 567.112 777.601 554.753 L 800.866 554.753 C 799.994 567.258 792.287 573.365 789.234 575.255 Z " fill="rgb(35,31,32)"/></g></g></g><g id="lightbulb"><g id="Group"><g id="Group"><g id="Group"><path d=" M 297.759 160.427 C 275.127 160.427 256.636 178.918 256.636 201.551 C 256.636 213.385 261.813 224.775 270.541 232.467 C 277.05 238.976 276.458 252.881 276.31 253.029 C 276.31 253.769 276.458 254.361 277.05 254.952 C 277.493 255.396 278.233 255.692 278.825 255.692 L 316.546 255.692 C 317.286 255.692 317.878 255.396 318.321 254.952 C 318.765 254.508 319.061 253.769 319.061 253.029 C 319.061 252.881 318.321 238.976 324.83 232.467 C 324.978 232.319 325.126 232.172 325.274 232.024 C 333.854 224.183 338.883 213.089 338.883 201.551 C 338.883 178.918 320.392 160.427 297.759 160.427 Z  M 321.428 228.621 C 321.28 228.769 320.984 229.065 320.984 229.213 C 315.215 235.426 314.179 245.633 314.031 250.514 L 281.34 250.514 C 281.192 245.633 280.156 234.982 273.943 228.621 C 266.103 221.817 261.517 211.905 261.517 201.403 C 261.517 181.433 277.641 165.308 297.612 165.308 C 317.582 165.308 333.706 181.433 333.706 201.403 C 333.706 211.905 329.268 221.817 321.428 228.621 Z " fill="rgb(35,31,32)"/><path d=" M 297.612 170.93 C 296.28 170.93 295.097 172.113 295.097 173.444 C 295.097 174.776 296.28 175.959 297.612 175.959 C 312.552 175.959 324.534 188.089 324.534 202.882 C 324.534 204.213 325.718 205.397 327.049 205.397 C 328.38 205.397 329.564 204.213 329.564 202.882 C 329.712 185.279 315.363 170.93 297.612 170.93 Z " fill="rgb(35,31,32)"/><path d=" M 314.031 258.503 L 281.192 258.503 C 277.789 258.503 274.979 261.313 274.979 264.715 C 274.979 268.118 277.789 270.928 281.192 270.928 L 313.883 270.928 C 317.434 270.78 320.244 268.118 320.244 264.715 C 320.244 261.313 317.434 258.503 314.031 258.503 Z  M 314.031 265.751 L 281.192 265.751 C 280.6 265.751 280.008 265.307 280.008 264.568 C 280.008 263.828 280.452 263.384 281.192 263.384 L 313.883 263.384 C 314.475 263.384 315.067 263.828 315.067 264.568 C 315.067 265.307 314.623 265.751 314.031 265.751 Z " fill="rgb(35,31,32)"/><path d=" M 309.15 273.443 L 286.073 273.443 C 282.671 273.443 279.86 276.254 279.86 279.656 C 279.86 283.058 282.671 285.869 286.073 285.869 L 309.15 285.869 C 312.552 285.869 315.363 283.058 315.363 279.656 C 315.363 276.106 312.552 273.443 309.15 273.443 Z  M 309.15 280.692 L 286.073 280.692 C 285.481 280.692 284.89 280.248 284.89 279.508 C 284.89 278.769 285.334 278.325 286.073 278.325 L 309.15 278.325 C 309.742 278.325 310.333 278.769 310.333 279.508 C 310.333 280.248 309.742 280.692 309.15 280.692 Z " fill="rgb(35,31,32)"/><path d=" M 297.612 148.149 C 299.091 148.149 300.126 146.965 300.126 145.634 L 300.126 128.475 C 300.126 127.143 298.943 125.96 297.612 125.96 C 296.28 125.96 295.097 127.143 295.097 128.475 L 295.097 145.634 C 295.097 146.965 296.28 148.149 297.612 148.149 Z " fill="rgb(35,31,32)"/><path d=" M 339.475 138.682 C 338.291 137.794 336.812 138.238 336.073 139.273 L 326.605 153.474 C 325.718 154.658 326.014 156.285 327.197 157.025 C 327.641 157.32 328.084 157.468 328.528 157.468 C 329.416 157.468 330.155 157.025 330.599 156.285 L 340.067 142.084 C 340.954 141.048 340.658 139.421 339.475 138.682 Z " fill="rgb(35,31,32)"/><path d=" M 267.582 156.877 C 268.026 156.877 268.47 156.729 268.914 156.433 C 270.097 155.693 270.393 154.066 269.653 152.883 L 260.482 138.534 C 259.742 137.35 258.115 137.054 256.932 137.794 C 255.748 138.534 255.452 140.161 256.192 141.344 L 265.363 155.693 C 265.955 156.581 266.695 156.877 267.582 156.877 Z " fill="rgb(35,31,32)"/><path d=" M 249.683 172.557 L 234.742 164.421 C 233.559 163.829 231.932 164.273 231.34 165.456 C 230.601 166.64 231.044 168.267 232.376 168.859 L 247.316 176.995 C 247.76 177.143 248.056 177.291 248.5 177.291 C 249.387 177.291 250.275 176.847 250.719 175.959 C 251.31 174.776 250.867 173.149 249.683 172.557 Z " fill="rgb(35,31,32)"/><path d=" M 364.031 165.456 C 363.439 164.273 361.812 163.829 360.628 164.421 L 345.54 172.557 C 344.356 173.149 343.913 174.776 344.504 175.959 C 344.948 176.847 345.836 177.291 346.723 177.291 C 347.167 177.291 347.611 177.143 347.907 176.995 L 362.995 168.859 C 364.179 168.267 364.622 166.64 364.031 165.456 Z " fill="rgb(35,31,32)"/></g></g></g></g><g id="antenna"><g id="Group"><g id="Group"><path d=" M 280.54 600.675 C 281.674 599.792 281.878 598.157 280.994 597.023 C 280.111 595.889 278.476 595.686 277.342 596.569 C 277.113 596.747 276.916 596.962 276.758 597.205 C 266.888 607.745 266.888 624.136 276.758 634.676 C 277.26 635.16 277.935 635.422 278.632 635.404 C 280.069 635.404 281.234 634.239 281.234 632.803 C 281.234 632.146 280.986 631.514 280.54 631.033 C 272.543 622.494 272.543 609.214 280.54 600.675 Z " fill="rgb(0,0,0)"/></g></g><g id="Group"><g id="Group"><path d=" M 268.599 641.384 C 268.442 641.141 268.245 640.926 268.016 640.747 C 255.003 626.836 255.003 605.219 268.016 591.307 C 269.149 590.424 269.352 588.789 268.469 587.655 C 267.586 586.521 265.951 586.318 264.817 587.202 C 264.589 587.38 264.391 587.595 264.233 587.838 C 249.456 603.726 249.456 628.329 264.233 644.217 C 265.016 645.422 266.627 645.765 267.833 644.983 C 269.039 644.2 269.382 642.589 268.599 641.384 Z " fill="rgb(0,0,0)"/></g></g><g id="Group"><g id="Group"><path d=" M 255.526 580.691 C 256.659 579.808 256.863 578.173 255.979 577.039 C 255.096 575.905 253.461 575.702 252.327 576.585 C 252.099 576.763 251.901 576.978 251.743 577.221 C 231.31 599.057 231.31 632.997 251.743 654.833 C 252.262 655.28 252.935 655.504 253.617 655.458 C 255.054 655.424 256.191 654.232 256.157 652.795 C 256.143 652.192 255.919 651.612 255.525 651.156 C 236.97 631.332 236.97 600.514 255.526 580.691 Z " fill="rgb(0,0,0)"/></g></g><g id="Group"><g id="Group"><path d=" M 332.583 597.24 C 331.801 596.034 330.189 595.692 328.984 596.474 C 327.778 597.257 327.436 598.868 328.218 600.073 C 328.376 600.316 328.573 600.531 328.802 600.71 C 336.799 609.249 336.799 622.528 328.802 631.067 C 327.838 632.107 327.884 633.727 328.906 634.71 C 329.922 635.725 331.568 635.725 332.583 634.71 C 342.453 624.171 342.453 607.78 332.583 597.24 Z " fill="rgb(0,0,0)"/></g></g><g id="Group"><g id="Group"><path d=" M 345.038 587.63 C 343.904 586.747 342.269 586.95 341.386 588.083 C 340.705 588.958 340.652 590.169 341.256 591.099 C 354.269 605.01 354.269 626.628 341.256 640.539 C 340.27 641.583 340.316 643.23 341.36 644.217 C 342.376 645.232 344.022 645.232 345.038 644.217 C 359.945 628.3 359.945 603.547 345.038 587.63 Z " fill="rgb(0,0,0)"/></g></g><g id="Group"><g id="Group"><path d=" M 357.528 577.013 C 356.746 575.807 355.134 575.465 353.929 576.247 C 352.724 577.03 352.381 578.641 353.163 579.846 C 353.321 580.089 353.518 580.304 353.747 580.483 C 372.433 600.335 372.433 631.303 353.747 651.156 C 352.613 652.039 352.41 653.674 353.293 654.808 C 354.176 655.941 355.811 656.145 356.945 655.261 C 357.174 655.083 357.371 654.868 357.529 654.625 C 377.962 632.789 377.962 598.849 357.528 577.013 Z " fill="rgb(0,0,0)"/></g></g><g id="Group"><g id="Group"><path d=" M 347.432 732.376 L 320.44 641.615 C 320.116 640.504 319.098 639.741 317.942 639.741 L 306.354 639.741 L 306.354 632.386 C 315.535 630.949 321.813 622.341 320.376 613.159 C 318.939 603.978 310.331 597.7 301.15 599.137 C 291.968 600.574 285.69 609.182 287.127 618.364 C 288.258 625.588 293.925 631.255 301.15 632.386 L 301.15 639.741 L 289.527 639.741 C 288.37 639.741 287.353 640.504 287.029 641.615 L 260.071 732.376 C 259.659 733.756 260.444 735.208 261.823 735.62 C 263.203 736.032 264.655 735.248 265.067 733.868 L 275.788 697.785 L 331.716 697.785 L 342.436 733.868 C 342.848 735.248 344.301 736.032 345.68 735.62 C 347.06 735.208 347.844 733.756 347.432 732.376 Z  M 292.129 615.871 C 292.129 609.452 297.333 604.248 303.752 604.248 C 310.171 604.248 315.374 609.452 315.374 615.871 C 315.374 622.29 310.171 627.494 303.752 627.494 C 297.332 627.494 292.129 622.29 292.129 615.871 Z  M 291.469 644.945 L 315.998 644.945 L 316.033 644.945 L 323.319 669.509 L 284.183 669.509 L 291.469 644.945 Z  M 277.349 692.581 L 282.657 674.713 L 324.88 674.713 L 330.189 692.581 L 277.349 692.581 Z " fill="rgb(0,0,0)"/></g></g></g></g></svg>