<?xml version="1.0" standalone="no"?><!-- Generator: Gravit.io --><svg xmlns="http://www.w3.org/2000/svg" xmlns:xlink="http://www.w3.org/1999/xlink" style="isolation:isolate" viewBox="153.929 61.841 287 287" width="287" height="287"><defs><clipPath id="_clipPath_dTznXY5k4jhPJvjN55bocKevvuYPNbe1"><rect width="595.276" height="841.89"/></clipPath></defs><g clip-path="url(#_clipPath_dTznXY5k4jhPJvjN55bocKevvuYPNbe1)"><path d=" M 153.927 205.914 C 153.927 126.598 218.321 62.203 297.638 62.203 C 376.954 62.203 441.349 126.598 441.349 205.914 C 441.349 285.231 376.954 349.626 297.638 349.626 C 218.321 349.626 153.927 285.231 153.927 205.914 Z " fill="rgb(238,185,2)"/><path d=" M 153.927 600.584 C 153.927 521.267 218.321 456.873 297.638 456.873 C 376.954 456.873 441.349 521.267 441.349 600.584 C 441.349 679.9 376.954 744.295 297.638 744.295 C 218.321 744.295 153.927 679.9 153.927 600.584 Z " fill="rgb(45,125,210)"/><g id="rocket"><g id="Group"><g id="Group"><path d=" M 326.064 610.689 C 328.391 593.241 328.536 572.012 321.557 551.946 C 321.557 551.51 321.412 551.073 321.121 550.783 C 317.049 539.586 310.797 528.826 301.346 519.375 C 300.909 518.939 300.182 518.648 299.601 518.648 L 296.547 518.648 C 295.82 518.648 295.239 518.939 294.802 519.375 C 285.351 528.826 279.099 539.586 275.027 550.783 C 274.882 551.073 274.736 551.364 274.736 551.8 C 267.757 571.575 267.902 592.659 270.229 609.962 C 270.084 609.962 270.084 609.962 269.938 610.108 C 246.237 623.776 245.219 645.587 245.219 646.459 C 245.219 647.186 245.51 647.768 245.946 648.204 C 246.382 648.64 247.11 648.931 247.691 648.931 L 281.571 648.931 L 313.56 648.931 L 314.868 648.931 L 347.584 648.931 C 348.311 648.931 348.893 648.64 349.329 648.204 C 349.766 647.768 350.056 647.041 350.056 646.459 C 349.911 645.587 348.893 624.358 326.064 610.689 Z  M 300.619 525.918 C 307.307 533.189 312.106 541.331 315.595 549.765 L 300.619 549.765 L 300.619 525.918 L 300.619 525.918 Z  M 295.675 525.918 L 295.675 549.765 L 280.844 549.765 C 284.188 541.331 289.132 533.189 295.675 525.918 Z  M 250.454 644.133 C 251.472 638.607 255.398 624.939 270.956 615.342 C 273.137 628.574 276.336 639.043 278.081 644.133 L 250.454 644.133 Z  M 313.123 644.133 L 301.782 644.133 L 301.782 607.054 C 301.782 605.746 300.619 604.582 299.31 604.582 C 298.001 604.582 296.838 605.746 296.838 607.054 L 296.838 644.133 L 283.315 644.133 C 280.262 635.554 266.303 592.805 278.953 554.708 L 317.34 554.708 C 330.136 592.805 316.177 635.554 313.123 644.133 Z  M 318.358 644.133 C 320.103 639.189 323.156 629.01 325.337 616.069 C 340.169 625.666 343.804 638.753 344.822 644.133 C 344.822 644.133 318.358 644.133 318.358 644.133 Z " fill="rgb(35,31,32)"/><path d=" M 313.56 651.694 L 285.06 651.694 C 283.752 651.694 282.588 652.857 282.588 654.166 C 282.588 674.231 297.565 681.938 298.147 682.229 C 298.438 682.374 298.874 682.52 299.31 682.52 C 299.746 682.52 300.037 682.374 300.473 682.229 C 301.055 681.938 316.032 674.086 316.032 654.166 C 316.032 652.857 314.868 651.694 313.56 651.694 Z  M 299.31 677.14 C 296.402 675.249 288.55 668.997 287.678 656.637 L 310.942 656.637 C 310.07 669.142 302.363 675.249 299.31 677.14 Z " fill="rgb(35,31,32)"/></g></g></g><g id="lightbulb"><g id="Group"><g id="Group"><g id="Group"><path d=" M 297.759 160.427 C 275.127 160.427 256.636 178.918 256.636 201.551 C 256.636 213.385 261.813 224.775 270.541 232.467 C 277.05 238.976 276.458 252.881 276.31 253.029 C 276.31 253.769 276.458 254.361 277.05 254.952 C 277.493 255.396 278.233 255.692 278.825 255.692 L 316.546 255.692 C 317.286 255.692 317.878 255.396 318.321 254.952 C 318.765 254.508 319.061 253.769 319.061 253.029 C 319.061 252.881 318.321 238.976 324.83 232.467 C 324.978 232.319 325.126 232.172 325.274 232.024 C 333.854 224.183 338.883 213.089 338.883 201.551 C 338.883 178.918 320.392 160.427 297.759 160.427 Z  M 321.428 228.621 C 321.28 228.769 320.984 229.065 320.984 229.213 C 315.215 235.426 314.179 245.633 314.031 250.514 L 281.34 250.514 C 281.192 245.633 280.156 234.982 273.943 228.621 C 266.103 221.817 261.517 211.905 261.517 201.403 C 261.517 181.433 277.641 165.308 297.612 165.308 C 317.582 165.308 333.706 181.433 333.706 201.403 C 333.706 211.905 329.268 221.817 321.428 228.621 Z " fill="rgb(35,31,32)"/><path d=" M 297.612 170.93 C 296.28 170.93 295.097 172.113 295.097 173.444 C 295.097 174.776 296.28 175.959 297.612 175.959 C 312.552 175.959 324.534 188.089 324.534 202.882 C 324.534 204.213 325.718 205.397 327.049 205.397 C 328.38 205.397 329.564 204.213 329.564 202.882 C 329.712 185.279 315.363 170.93 297.612 170.93 Z " fill="rgb(35,31,32)"/><path d=" M 314.031 258.503 L 281.192 258.503 C 277.789 258.503 274.979 261.313 274.979 264.715 C 274.979 268.118 277.789 270.928 281.192 270.928 L 313.883 270.928 C 317.434 270.78 320.244 268.118 320.244 264.715 C 320.244 261.313 317.434 258.503 314.031 258.503 Z  M 314.031 265.751 L 281.192 265.751 C 280.6 265.751 280.008 265.307 280.008 264.568 C 280.008 263.828 280.452 263.384 281.192 263.384 L 313.883 263.384 C 314.475 263.384 315.067 263.828 315.067 264.568 C 315.067 265.307 314.623 265.751 314.031 265.751 Z " fill="rgb(35,31,32)"/><path d=" M 309.15 273.443 L 286.073 273.443 C 282.671 273.443 279.86 276.254 279.86 279.656 C 279.86 283.058 282.671 285.869 286.073 285.869 L 309.15 285.869 C 312.552 285.869 315.363 283.058 315.363 279.656 C 315.363 276.106 312.552 273.443 309.15 273.443 Z  M 309.15 280.692 L 286.073 280.692 C 285.481 280.692 284.89 280.248 284.89 279.508 C 284.89 278.769 285.334 278.325 286.073 278.325 L 309.15 278.325 C 309.742 278.325 310.333 278.769 310.333 279.508 C 310.333 280.248 309.742 280.692 309.15 280.692 Z " fill="rgb(35,31,32)"/><path d=" M 297.612 148.149 C 299.091 148.149 300.126 146.965 300.126 145.634 L 300.126 128.475 C 300.126 127.143 298.943 125.96 297.612 125.96 C 296.28 125.96 295.097 127.143 295.097 128.475 L 295.097 145.634 C 295.097 146.965 296.28 148.149 297.612 148.149 Z " fill="rgb(35,31,32)"/><path d=" M 339.475 138.682 C 338.291 137.794 336.812 138.238 336.073 139.273 L 326.605 153.474 C 325.718 154.658 326.014 156.285 327.197 157.025 C 327.641 157.32 328.084 157.468 328.528 157.468 C 329.416 157.468 330.155 157.025 330.599 156.285 L 340.067 142.084 C 340.954 141.048 340.658 139.421 339.475 138.682 Z " fill="rgb(35,31,32)"/><path d=" M 267.582 156.877 C 268.026 156.877 268.47 156.729 268.914 156.433 C 270.097 155.693 270.393 154.066 269.653 152.883 L 260.482 138.534 C 259.742 137.35 258.115 137.054 256.932 137.794 C 255.748 138.534 255.452 140.161 256.192 141.344 L 265.363 155.693 C 265.955 156.581 266.695 156.877 267.582 156.877 Z " fill="rgb(35,31,32)"/><path d=" M 249.683 172.557 L 234.742 164.421 C 233.559 163.829 231.932 164.273 231.34 165.456 C 230.601 166.64 231.044 168.267 232.376 168.859 L 247.316 176.995 C 247.76 177.143 248.056 177.291 248.5 177.291 C 249.387 177.291 250.275 176.847 250.719 175.959 C 251.31 174.776 250.867 173.149 249.683 172.557 Z " fill="rgb(35,31,32)"/><path d=" M 364.031 165.456 C 363.439 164.273 361.812 163.829 360.628 164.421 L 345.54 172.557 C 344.356 173.149 343.913 174.776 344.504 175.959 C 344.948 176.847 345.836 177.291 346.723 177.291 C 347.167 177.291 347.611 177.143 347.907 176.995 L 362.995 168.859 C 364.179 168.267 364.622 166.64 364.031 165.456 Z " fill="rgb(35,31,32)"/></g></g></g></g></g></svg>