<?xml version="1.0" standalone="no"?><!-- Generator: Gravit.io --><svg xmlns="http://www.w3.org/2000/svg" xmlns:xlink="http://www.w3.org/1999/xlink" style="isolation:isolate" viewBox="122.1 137.05 360 120" width="360" height="120"><defs><clipPath id="_clipPath_NYAA8fEW9enjnWjSiS4ig5ozFkiRX2MC"><rect width="595.276" height="841.89"/></clipPath></defs><g clip-path="url(#_clipPath_NYAA8fEW9enjnWjSiS4ig5ozFkiRX2MC)"><g id="Group"><path d=" M 242.437 197.505 C 242.437 230.47 215.713 257.193 182.748 257.193 C 149.783 257.193 123.06 230.47 123.06 197.505 C 123.06 164.54 149.783 137.816 182.748 137.816 C 215.713 137.816 242.437 164.54 242.437 197.505 Z " fill="rgb(255,127,17)"/><clipPath id="_clipPath_IyhyXfcTfAkismGGne9oeeqwTUw2NScJ"><path d=" M 242.437 197.505 C 242.437 230.47 215.713 257.193 182.748 257.193 C 149.783 257.193 123.06 230.47 123.06 197.505 C 123.06 164.54 149.783 137.816 182.748 137.816 C 215.713 137.816 242.437 164.54 242.437 197.505 Z " fill="rgb(255,127,17)"/></clipPath><g clip-path="url(#_clipPath_IyhyXfcTfAkismGGne9oeeqwTUw2NScJ)"><path d=" M 246.617 185.79 C 246.617 214.104 223.664 237.057 195.35 237.057 C 167.036 237.057 144.083 214.104 144.083 185.79 C 144.083 157.475 167.036 134.522 195.35 134.522 C 223.664 134.522 246.617 157.475 246.617 185.79 Z " fill="rgb(109,106,117)"/></g><path d=" M 235.659 179.434 C 235.659 197.741 220.819 212.582 202.511 212.582 C 184.204 212.582 169.363 197.741 169.363 179.434 C 169.363 161.127 184.204 146.286 202.511 146.286 C 220.819 146.286 235.659 161.127 235.659 179.434 Z " fill="rgb(55,50,62)"/></g><g id="Group"><path d=" M 283.575 196.21 L 274.755 181.75 L 272.775 184.03 L 272.775 196.21 L 260.715 196.21 L 260.715 156.19 L 272.775 156.19 L 272.775 170.35 L 282.135 156.19 L 297.255 156.19 L 283.095 172.33 L 298.395 196.21 L 283.575 196.21 L 283.575 196.21 Z  M 329.115 196.21 L 326.895 189.19 L 313.155 189.19 L 310.995 196.21 L 299.895 196.21 L 314.655 156.19 L 327.975 156.19 L 341.415 196.21 L 329.115 196.21 L 329.115 196.21 Z  M 315.795 180.79 L 324.195 180.79 L 319.935 167.53 L 315.795 180.79 L 315.795 180.79 Z  M 384.495 196.21 L 369.015 196.21 L 362.115 183.43 L 357.915 183.43 L 357.915 196.21 L 345.915 196.21 L 345.915 156.19 L 366.735 156.19 L 366.735 156.19 Q 374.055 156.19 378.165 159.49 L 378.165 159.49 L 378.165 159.49 Q 382.275 162.79 382.275 169.33 L 382.275 169.33 L 382.275 169.33 Q 382.275 172.99 380.265 176.35 L 380.265 176.35 L 380.265 176.35 Q 378.255 179.71 374.535 181.03 L 374.535 181.03 L 384.495 196.21 L 384.495 196.21 Z  M 365.235 174.97 L 365.235 174.97 Q 366.975 174.97 368.085 173.77 L 368.085 173.77 L 368.085 173.77 Q 369.195 172.57 369.195 169.87 L 369.195 169.87 L 369.195 169.87 Q 369.195 167.59 368.055 166.39 L 368.055 166.39 L 368.055 166.39 Q 366.915 165.19 365.235 165.19 L 365.235 165.19 L 357.915 165.19 L 357.915 174.97 L 365.235 174.97 L 365.235 174.97 Z  M 423.255 156.19 L 435.015 156.19 L 435.015 196.21 L 423.015 196.21 L 423.015 171.61 L 412.455 185.29 L 401.895 171.55 L 401.895 196.21 L 390.495 196.21 L 390.495 156.19 L 402.615 156.19 L 412.815 169.69 L 423.255 156.19 L 423.255 156.19 Z  M 468.735 196.21 L 466.515 189.19 L 452.775 189.19 L 450.615 196.21 L 439.515 196.21 L 454.275 156.19 L 467.595 156.19 L 481.035 196.21 L 468.735 196.21 L 468.735 196.21 Z  M 455.415 180.79 L 463.815 180.79 L 459.555 167.53 L 455.415 180.79 L 455.415 180.79 Z " fill-rule="evenodd" fill="rgb(255,127,17)"/><path d=" M 268.335 244.1 L 268.335 213.08 L 258.315 213.08 L 258.315 204.08 L 290.595 204.08 L 290.595 213.08 L 280.335 213.08 L 280.335 244.1 L 268.335 244.1 L 268.335 244.1 Z  M 334.575 244.1 L 319.095 244.1 L 312.195 231.32 L 307.995 231.32 L 307.995 244.1 L 295.995 244.1 L 295.995 204.08 L 316.815 204.08 L 316.815 204.08 Q 324.135 204.08 328.245 207.38 L 328.245 207.38 L 328.245 207.38 Q 332.355 210.68 332.355 217.22 L 332.355 217.22 L 332.355 217.22 Q 332.355 220.88 330.345 224.24 L 330.345 224.24 L 330.345 224.24 Q 328.335 227.6 324.615 228.92 L 324.615 228.92 L 334.575 244.1 L 334.575 244.1 Z  M 315.315 222.86 L 315.315 222.86 Q 317.055 222.86 318.165 221.66 L 318.165 221.66 L 318.165 221.66 Q 319.275 220.46 319.275 217.76 L 319.275 217.76 L 319.275 217.76 Q 319.275 215.48 318.135 214.28 L 318.135 214.28 L 318.135 214.28 Q 316.995 213.08 315.315 213.08 L 315.315 213.08 L 307.995 213.08 L 307.995 222.86 L 315.315 222.86 L 315.315 222.86 Z  M 340.575 244.1 L 340.575 204.08 L 368.955 204.08 L 368.955 213.08 L 352.635 213.08 L 352.635 219.56 L 366.615 219.56 L 366.615 228.56 L 352.575 228.56 L 352.575 235.1 L 368.955 235.1 L 368.955 244.1 L 340.575 244.1 L 340.575 244.1 Z  M 401.235 204.08 L 412.155 204.08 L 412.155 244.1 L 403.755 244.1 L 387.375 223.64 L 387.375 244.1 L 376.455 244.1 L 376.455 204.08 L 386.175 204.08 L 401.235 223.76 L 401.235 204.08 L 401.235 204.08 Z  M 419.955 244.1 L 419.955 204.08 L 437.535 204.08 L 437.535 204.08 Q 447.975 204.08 452.865 209.09 L 452.865 209.09 L 452.865 209.09 Q 457.755 214.1 457.755 224.12 L 457.755 224.12 L 457.755 224.12 Q 457.755 234.08 452.835 239.09 L 452.835 239.09 L 452.835 239.09 Q 447.915 244.1 437.535 244.1 L 437.535 244.1 L 419.955 244.1 L 419.955 244.1 Z  M 431.955 235.1 L 436.035 235.1 L 436.035 235.1 Q 440.595 235.1 443.025 232.4 L 443.025 232.4 L 443.025 232.4 Q 445.455 229.7 445.455 224.12 L 445.455 224.12 L 445.455 224.12 Q 445.455 213.08 436.035 213.08 L 436.035 213.08 L 431.955 213.08 L 431.955 235.1 L 431.955 235.1 Z " fill-rule="evenodd" fill="rgb(255,127,17)"/></g></g></svg>